<?xml version="1.0" encoding="UTF-8" standalone="no"?>
<svg
   xmlns:dc="http://purl.org/dc/elements/1.1/"
   xmlns:cc="http://creativecommons.org/ns#"
   xmlns:rdf="http://www.w3.org/1999/02/22-rdf-syntax-ns#"
   xmlns:svg="http://www.w3.org/2000/svg"
   xmlns="http://www.w3.org/2000/svg"
   xmlns:sodipodi="http://sodipodi.sourceforge.net/DTD/sodipodi-0.dtd"
   xmlns:inkscape="http://www.inkscape.org/namespaces/inkscape"
   viewBox="0 0 23.99563 23"
   x="0px"
   y="0px"
   version="1.1"
   id="svg8"
   sodipodi:docname="back.svg"
   width="23.99563"
   height="23"
   inkscape:version="1.0.2 (e86c870879, 2021-01-15)">
  <metadata
     id="metadata14">
    <rdf:RDF>
      <cc:Work
         rdf:about="">
        <dc:format>image/svg+xml</dc:format>
        <dc:type
           rdf:resource="http://purl.org/dc/dcmitype/StillImage" />
        <dc:title></dc:title>
      </cc:Work>
    </rdf:RDF>
  </metadata>
  <defs
     id="defs12" />
  <sodipodi:namedview
     pagecolor="#ffffff"
     bordercolor="#666666"
     borderopacity="1"
     objecttolerance="10"
     gridtolerance="10"
     guidetolerance="10"
     inkscape:pageopacity="0"
     inkscape:pageshadow="2"
     inkscape:window-width="958"
     inkscape:window-height="1041"
     id="namedview10"
     showgrid="false"
     inkscape:zoom="4.5478261"
     inkscape:cx="35.136502"
     inkscape:cy="20.686518"
     inkscape:window-x="960"
     inkscape:window-y="37"
     inkscape:window-maximized="0"
     inkscape:current-layer="svg8" />
  <path
     fill="#ffffff"
     d="m 3.41421,5 h 11.57803 c 4.96941,0 9.00339,4.0354 9.00339,9 0,4.9734 -4.02538,9 -9.00339,9 H 3 C 2.44771,23 2,22.55228 2,22 2,21.44772 2.44771,21 3,21 h 11.99224 c 3.87331,0 7.00339,-3.13103 7.00339,-7 0,-3.86019 -3.13871,-7 -7.00339,-7 H 3.41421 l 3.2929,3.29289 c 0.39052,0.39053 0.39052,1.02369 0,1.41422 -0.39053,0.39052 -1.02369,0.39052 -1.41422,0 l -5,-5 c -0.39052,-0.39053 -0.39052,-1.02369 0,-1.41422 l 5,-5 c 0.39053,-0.39052 1.02369,-0.39052 1.41422,0 0.39052,0.39053 0.39052,1.02369 0,1.41422 z"
     id="path2" />
  <path
     id="text4"
     d="m 28.845703,34.429688 c -0.0046,0.0042 -0.009,0.0096 -0.01367,0.01367 0.200623,-9.89e-4 0.400609,-0.0043 0.601563,-0.0039 0.06641,-0.0019 0.13281,-0.004 0.199218,-0.0059 l -0.002,-0.0039 z" />
</svg>
